<?xml version="1.0" encoding="utf-8"?>
<!-- Generator: Adobe Illustrator 26.5.0, SVG Export Plug-In . SVG Version: 6.00 Build 0)  -->
<svg version="1.1" id="Layer_1" xmlns="http://www.w3.org/2000/svg" xmlns:xlink="http://www.w3.org/1999/xlink" x="0px" y="0px"
	 viewBox="0 0 74.1 76.9" style="enable-background:new 0 0 74.1 76.9;" xml:space="preserve">
<style type="text/css">
	.st0{fill:#FFFFFF;}
</style>
<g>
	<g>
		<path class="st0" d="M7,8.9c-3.9,0-7,3.1-7,7v54.1c0,3.9,3.1,7,7,7h60.1c3.9,0,7-3.1,7-7V15.9c0-3.9-3.1-7-7-7h-2.4v4.4
			c0,3-2.4,5.4-5.4,5.4c-3,0-5.4-2.4-5.4-5.4V8.9H20.2v4.4c0,3-2.4,5.4-5.4,5.4c-3,0-5.4-2.4-5.4-5.4V8.9H7z M11.4,28.4h51.3
			c1.5,0,2.8,1.1,2.8,2.5v35c0,1.4-1.3,2.5-2.8,2.5H11.4c-1.5,0-2.8-1.1-2.8-2.5V31C8.6,29.6,9.9,28.4,11.4,28.4z"/>
		<path class="st0" d="M12.2,2.6v6.3v4.4c0,1.4,1.1,2.6,2.6,2.6c1.4,0,2.6-1.1,2.6-2.6V8.9V2.6c0-1.4-1.2-2.6-2.6-2.6
			C13.4,0,12.2,1.1,12.2,2.6z"/>
		<path class="st0" d="M56.8,2.6v6.3v4.4c0,1.4,1.2,2.6,2.6,2.6c1.4,0,2.6-1.1,2.6-2.6V8.9V2.6c0-1.4-1.1-2.6-2.6-2.6
			C57.9,0,56.8,1.1,56.8,2.6z"/>
	</g>
	<rect x="13.5" y="32.8" class="st0" width="13.6" height="13.9"/>
	<rect x="30.6" y="32.8" class="st0" width="13.6" height="13.9"/>
	<rect x="13.5" y="49.9" class="st0" width="13.6" height="13.9"/>
	<rect x="30.6" y="49.9" class="st0" width="13.6" height="13.9"/>
	<rect x="48.3" y="32.8" class="st0" width="13.6" height="13.9"/>
	<rect x="48.3" y="49.9" class="st0" width="13.6" height="13.9"/>
</g>
</svg>
