<?xml version="1.0" encoding="utf-8"?>
<!-- Generator: Adobe Illustrator 26.5.0, SVG Export Plug-In . SVG Version: 6.00 Build 0)  -->
<svg version="1.1" id="Layer_1" xmlns="http://www.w3.org/2000/svg" xmlns:xlink="http://www.w3.org/1999/xlink" x="0px" y="0px"
	 viewBox="0 0 38.1 38.1" style="enable-background:new 0 0 38.1 38.1;" xml:space="preserve">
<style type="text/css">
	.st0{fill:#222221;}
	.st1{fill:#FFFFFF;}
</style>
<g id="XMLID_1967_">
	<path id="XMLID_1974_" class="st0" d="M19,38.1L19,38.1c-10.5,0-19-8.5-19-19v0C0,8.5,8.5,0,19,0l0,0c10.5,0,19,8.5,19,19v0
		C38.1,29.5,29.5,38.1,19,38.1z"/>
	<g id="XMLID_1968_" transform="translate(-1)">
		<path id="XMLID_1973_" class="st1" d="M8.3,12.9l5.8,3.7l5.8-3.7l-5.8-3.7L8.3,12.9z"/>
		<path id="XMLID_1972_" class="st1" d="M20,12.9l5.8,3.7l5.8-3.7l-5.8-3.7L20,12.9z"/>
		<path id="XMLID_1971_" class="st1" d="M8.3,20.2l5.8,3.7l5.8-3.7l-5.8-3.7L8.3,20.2z"/>
		<path id="XMLID_1970_" class="st1" d="M25.9,16.5L20,20.2l5.8,3.7l5.8-3.7L25.9,16.5z"/>
		<path id="XMLID_1969_" class="st1" d="M14.2,25.2l5.8,3.7l5.8-3.7l-5.8-3.7L14.2,25.2z"/>
	</g>
</g>
</svg>
