<?xml version="1.0" encoding="utf-8"?>
<!-- Generator: Adobe Illustrator 26.5.0, SVG Export Plug-In . SVG Version: 6.00 Build 0)  -->
<svg version="1.1" id="Layer_1" xmlns="http://www.w3.org/2000/svg" xmlns:xlink="http://www.w3.org/1999/xlink" x="0px" y="0px"
	 viewBox="0 0 60.4 68.7" style="enable-background:new 0 0 60.4 68.7;" xml:space="preserve">
<style type="text/css">
	.st0{fill:#FFFFFF;}
</style>
<path class="st0" d="M56.7,8C56.7,8,56.7,8,56.7,8L55,5.9C51.9,2.1,47.4,0,42.5,0c0,0,0,0,0,0c-3.7,0-7.3,1.3-10.2,3.6L19.2,14.5
	c-3.7,3.1-5.9,7.6-5.9,12.4c0,2,0.4,4,1.1,5.9c0.1,0.4,0.1,0.8-0.2,1.1c-0.3,0.3-0.6,0.4-1,0.4c-0.3-0.1-0.6-0.1-0.9-0.1
	c0,0,0,0,0,0c-1,0-2,0.4-2.8,1l-3.6,3C2.1,41.2,0,45.7,0,50.6c0,3.7,1.3,7.3,3.6,10.2l1.7,2.1c3.1,3.7,7.6,5.9,12.4,5.9c0,0,0,0,0,0
	c3.7,0,7.3-1.3,10.2-3.6l13.2-10.8c3.7-3.1,5.9-7.6,5.9-12.5c0-2-0.4-4-1.1-5.9c-0.1-0.4-0.1-0.8,0.2-1.1c0.3-0.3,0.7-0.4,1-0.4
	c0.3,0.1,0.6,0.1,0.9,0.1c1,0,2-0.4,2.8-1l3.6-3c0.4-0.3,0.8-0.7,1.2-1.1c3-3,4.7-7.1,4.7-11.3C60.4,14.5,59.1,10.8,56.7,8z
	 M37.2,45.4c-0.4,0.8-1,1.4-1.7,2L22.3,58.2c-1.3,1.1-2.9,1.6-4.5,1.6c-2.2,0-4.2-1-5.6-2.6l-1.7-2.1c-1.1-1.3-1.6-2.9-1.6-4.5
	c0-2.2,1-4.2,2.6-5.6l3.6-3c0.8-0.6,1.3-1.6,1.5-2.6c0.1-0.4,0.4-0.7,0.8-0.8c0.4-0.1,0.8,0,1.1,0.4l0.1,0.1
	c3.1,3.7,7.6,5.9,12.5,5.9c0.9,0,1.8-0.1,2.7-0.2c0.7-0.1,1.3-0.4,1.9-0.8c0.4-0.3,1-0.3,1.3,0.1C37.4,44.4,37.5,45,37.2,45.4z
	 M32.3,33.3L32.3,33.3c0.2,0,0.3,0.1,0.4,0.1c0.2,0.1,0.4,0.2,0.6,0.4l0.2,0.2c0,0,0,0,0,0c0.4,0.3,0.5,0.8,0.4,1.2
	c-0.1,0.4-0.5,0.7-1,0.8c-0.2,0-0.5,0-0.7,0.1c0,0,0,0,0,0l0,0c-0.4,0.1-0.8,0.1-1.2,0.1c-1.6,0-3.1-0.5-4.4-1.5
	c-0.4-0.3-0.5-0.8-0.4-1.2c0.1-0.4,0.5-0.7,1-0.7c0.2,0,0.5,0,0.7-0.1c0.7-0.1,1.4-0.1,2.1,0c0.4,0,0.8,0.1,1.2,0.3l0.2,0
	c0.2,0.1,0.3,0.1,0.5,0.2c0,0,0,0,0.1,0L32.3,33.3C32.3,33.3,32.3,33.3,32.3,33.3L32.3,33.3C32.3,33.3,32.3,33.3,32.3,33.3z
	 M48.8,23.7l-3.6,3c-0.8,0.6-1.3,1.6-1.5,2.6c-0.1,0.4-0.4,0.7-0.8,0.8c-0.1,0-0.2,0-0.3,0c-0.3,0-0.6-0.1-0.8-0.4l-0.1-0.1
	c-0.3-0.3-0.6-0.7-1-1.1l0,0l-0.2-0.2c-0.4-0.4-0.7-0.7-1.1-1l-0.1-0.1c0,0,0,0-0.1,0c-0.4-0.3-0.7-0.5-1.1-0.8c0,0,0,0,0,0
	l-0.1-0.1c-0.4-0.3-0.9-0.5-1.3-0.8l-0.1,0c0,0,0,0,0,0l0,0c-0.9-0.5-1.9-0.9-3-1.1c0,0,0,0,0,0c-2.3-0.6-4.7-0.7-6.9-0.3
	c-0.7,0.1-1.3,0.4-1.9,0.8c-0.4,0.3-1,0.3-1.3-0.1c-0.4-0.3-0.5-0.9-0.2-1.3c0.4-0.8,1-1.4,1.7-2L38,10.5c1.3-1.1,2.9-1.6,4.5-1.6
	c0,0,0,0,0,0c2.2,0,4.2,1,5.5,2.6l1.7,2.1c1.1,1.3,1.6,2.9,1.6,4.5C51.4,20.3,50.5,22.4,48.8,23.7z"/>
</svg>
