<?xml version="1.0" encoding="utf-8"?>
<!-- Generator: Adobe Illustrator 26.5.0, SVG Export Plug-In . SVG Version: 6.00 Build 0)  -->
<svg version="1.1" id="Layer_1" xmlns="http://www.w3.org/2000/svg" xmlns:xlink="http://www.w3.org/1999/xlink" x="0px" y="0px"
	 viewBox="0 0 65.1 71.7" style="enable-background:new 0 0 65.1 71.7;" xml:space="preserve">
<style type="text/css">
	.st0{fill:#FFFFFF;}
</style>
<path class="st0" d="M48.6,44.9c-7.2,2.8-11.7,8.6-10.1,13c1.7,4.4,8.9,5.7,16.2,2.9c6.2-2.4,10.4-7,10.4-11.1l0,0V0l0,0v0L21.6,8.4
	v6.5v4.9v4.6v6v22.8c-3.1-0.8-7.1-0.6-11.2,1c-7.2,2.8-11.7,8.6-10.1,13C2,71.7,9.3,73,16.5,70.2C22.8,67.8,27,63.1,26.9,59l0,0
	V29.5l32.9-6.4v20.7C56.8,43,52.7,43.3,48.6,44.9z M26.9,23.4v-4.6l32.9-6.4v4.6L26.9,23.4z"/>
</svg>
