<?xml version="1.0" encoding="utf-8"?>
<!-- Generator: Adobe Illustrator 26.5.0, SVG Export Plug-In . SVG Version: 6.00 Build 0)  -->
<svg version="1.1" id="Layer_1" xmlns="http://www.w3.org/2000/svg" xmlns:xlink="http://www.w3.org/1999/xlink" x="0px" y="0px"
	 viewBox="0 0 38.7 35.6" style="enable-background:new 0 0 38.7 35.6;" xml:space="preserve">
<style type="text/css">
	.st0{fill:#FFFFFF;}
</style>
<path class="st0" d="M38.6,5.1l-2.5,24c-0.1,1.8-1.2,2-3,1.7l0-2L34,29l2.5-24.1L9.8,2.1L9.5,5.5L7.3,5.6l0.4-3.7
	C7.8,0.7,8.9-0.1,10,0l26.7,2.8C37.9,2.9,38.8,4,38.6,5.1z M31.1,7.7l1.1,24.5c0.1,1.2-0.8,2.2-2,2.2L3.3,35.6
	c-1.2,0.1-2.2-0.8-2.2-2L0,9.1c-0.1-1.2,0.8-2.2,2-2.2l26.9-1.2C30,5.6,31,6.5,31.1,7.7z M3.2,33.2L30.1,32L29,7.8L2.1,9L3.2,33.2z
	 M28.7,24.8c0-0.7-0.3-1.5-0.8-2l-1.9-2c-0.7-0.6-1.7-0.6-2.3,0.1l-3.4,4l-7.4-9.1c-0.6-0.8-1.8-0.8-2.5,0l-5.8,7.6
	c-0.4,0.6-0.7,1.3-0.6,2.1l0.3,6.8L29,31L28.7,24.8z M24.4,16.4c1.6-0.1,2.8-1.4,2.8-3c-0.1-1.6-1.4-2.8-3-2.8
	c-1.6,0.1-2.8,1.4-2.8,3C21.4,15.3,22.8,16.5,24.4,16.4z"/>
</svg>
