<?xml version="1.0" encoding="utf-8"?>
<!-- Generator: Adobe Illustrator 26.5.0, SVG Export Plug-In . SVG Version: 6.00 Build 0)  -->
<svg version="1.1" id="Layer_1" xmlns="http://www.w3.org/2000/svg" xmlns:xlink="http://www.w3.org/1999/xlink" x="0px" y="0px"
	 viewBox="0 0 71.6 67.8" style="enable-background:new 0 0 71.6 67.8;" xml:space="preserve">
<style type="text/css">
	.st0{fill:#FFFFFF;}
</style>
<path class="st0" d="M65.9,0H5.7C2.5,0,0,2.5,0,5.7v56.4c0,3.1,2.5,5.7,5.7,5.7h60.2c3.1,0,5.7-2.5,5.7-5.7V5.7
	C71.6,2.5,69.1,0,65.9,0z M54.6,4v28.6H17V4H54.6z M13.6,59.2H3.3V48.9h10.3V59.2z M13.6,38.7H3.3V28.4h10.3V38.7z M13.6,18.2H3.3V8
	h10.3V18.2z M17,63.8V35.2h37.5v28.6H17z M68.3,59.2H58V48.9h10.3V59.2z M68.3,38.7H58V28.4h10.3V38.7z M68.3,18.2H58V8h10.3V18.2z"
	/>
</svg>
