<?xml version="1.0" encoding="utf-8"?>
<!-- Generator: Adobe Illustrator 26.5.0, SVG Export Plug-In . SVG Version: 6.00 Build 0)  -->
<svg version="1.1" id="Layer_1" xmlns="http://www.w3.org/2000/svg" xmlns:xlink="http://www.w3.org/1999/xlink" x="0px" y="0px"
	 viewBox="0 0 38.1 38.1" style="enable-background:new 0 0 38.1 38.1;" xml:space="preserve">
<style type="text/css">
	.st0{fill:#222221;}
	.st1{fill:#FFFFFF;}
</style>
<g id="XMLID_1728_">
	<path id="XMLID_1858_" class="st0" d="M19,38.1L19,38.1c-10.5,0-19-8.5-19-19v0C0,8.5,8.5,0,19,0h0c10.5,0,19,8.5,19,19v0
		C38.1,29.5,29.5,38.1,19,38.1z"/>
	<g id="XMLID_1729_">
		<path id="XMLID_1846_" class="st1" d="M33.6,11.7c-0.4-1.3-1.4-2.4-2.7-2.7C28.6,8.3,19,8.3,19,8.3s-9.5,0-11.9,0.6
			c-1.3,0.4-2.3,1.4-2.7,2.7C3.8,14,3.8,19,3.8,19s0,5,0.6,7.4c0.4,1.3,1.4,2.4,2.7,2.7C9.5,29.8,19,29.8,19,29.8s9.5,0,11.9-0.6
			c1.3-0.4,2.3-1.4,2.7-2.7c0.6-2.4,0.6-7.4,0.6-7.4S34.3,14,33.6,11.7z"/>
		<polygon id="XMLID_1730_" class="st0" points="15.9,23.6 15.9,14.5 23.9,19 		"/>
	</g>
</g>
</svg>
